<?xml version="1.0" standalone="no"?>
<!DOCTYPE svg PUBLIC "-//W3C//DTD SVG 20010904//EN"
 "http://www.w3.org/TR/2001/REC-SVG-20010904/DTD/svg10.dtd">
<svg version="1.0" xmlns="http://www.w3.org/2000/svg"
 width="1350.000000pt" height="1350.000000pt" viewBox="0 0 1350.000000 1350.000000"
 preserveAspectRatio="xMidYMid meet">
<metadata>
Created by potrace 1.14, written by Peter Selinger 2001-2017
</metadata>
<g transform="translate(0.000000,1350.000000) scale(0.100000,-0.100000)"
fill="#000000" stroke="none">
<path d="M6339 11526 c-2 -2 -53 -7 -114 -10 -60 -4 -121 -9 -135 -11 -14 -1
-46 -5 -70 -9 -25 -3 -67 -8 -95 -12 -56 -7 -257 -40 -295 -49 -14 -4 -38 -8
-55 -11 -135 -23 -541 -142 -720 -211 -91 -36 -100 -39 -215 -88 -103 -44
-355 -167 -358 -177 -2 -4 -9 -8 -16 -8 -6 0 -28 -11 -47 -25 -20 -13 -39 -22
-41 -19 -3 2 -11 -2 -18 -11 -7 -8 -16 -15 -21 -15 -24 0 -386 -241 -519 -347
-68 -54 -187 -151 -200 -163 -9 -8 -44 -40 -78 -70 -109 -96 -336 -328 -409
-417 -61 -73 -90 -108 -103 -122 -8 -9 -26 -32 -40 -51 -28 -39 -30 -43 -63
-85 -50 -63 -127 -175 -127 -185 0 -6 -4 -10 -9 -10 -5 0 -14 -13 -21 -30 -7
-16 -16 -30 -21 -30 -5 0 -9 -5 -9 -10 0 -6 -15 -32 -32 -58 -34 -49 -42 -63
-86 -141 -14 -25 -34 -62 -45 -81 -24 -41 -138 -270 -160 -320 -145 -329 -274
-736 -312 -985 -3 -22 -10 -56 -14 -75 -5 -19 -12 -55 -15 -80 -3 -25 -7 -54
-10 -65 -2 -11 -7 -49 -11 -85 -4 -36 -9 -73 -11 -83 -25 -132 -25 -791 0
-947 3 -14 7 -52 11 -85 3 -33 8 -69 10 -80 3 -11 7 -36 9 -55 5 -32 29 -169
41 -232 32 -168 127 -489 203 -688 77 -201 218 -501 287 -610 14 -22 25 -42
25 -45 0 -3 32 -56 71 -118 38 -61 76 -121 82 -132 7 -11 15 -22 18 -25 3 -3
20 -27 39 -55 36 -53 147 -203 165 -221 5 -6 19 -23 30 -38 26 -36 81 -101
174 -204 82 -93 312 -319 382 -377 14 -11 51 -43 84 -71 33 -29 112 -90 175
-138 63 -47 120 -90 126 -95 32 -26 283 -188 364 -234 420 -238 831 -404 1270
-512 80 -19 154 -37 165 -39 203 -39 318 -58 440 -71 28 -3 61 -8 75 -10 149
-27 793 -27 995 0 17 2 53 6 80 10 132 14 196 24 275 40 14 3 52 10 85 16 247
44 661 164 860 249 11 5 65 27 120 50 148 61 436 208 582 296 200 120 466 306
584 408 19 17 60 52 91 78 159 137 365 343 483 483 32 39 61 72 64 75 4 3 22
25 41 50 19 25 38 47 42 48 5 2 8 8 8 13 0 5 8 17 18 27 9 10 24 29 32 42 8
12 24 35 36 49 48 61 264 394 264 408 0 3 9 17 19 31 37 52 191 372 256 530
89 220 151 411 207 637 22 90 22 92 42 195 24 124 27 144 32 175 2 17 7 44 9
60 3 17 8 57 11 90 3 33 7 66 10 73 25 77 24 820 -1 947 -3 11 -7 44 -10 74
-3 30 -9 82 -15 115 -5 34 -12 78 -16 100 -3 21 -8 48 -10 60 -3 11 -9 46 -15
76 -35 186 -145 561 -209 715 -4 11 -18 45 -30 75 -51 131 -189 421 -246 517
-11 17 -37 62 -58 100 -56 97 -207 323 -280 416 -33 44 -65 87 -71 96 -5 9
-12 18 -15 21 -3 3 -30 34 -60 70 -73 87 -66 79 -140 160 -141 155 -328 333
-464 443 -21 18 -53 43 -70 58 -121 100 -412 302 -533 370 -22 13 -70 40 -105
60 -106 61 -229 124 -349 179 -146 67 -160 73 -244 105 -38 14 -79 30 -90 35
-30 13 -227 81 -249 86 -11 2 -47 12 -80 23 -94 31 -398 105 -471 115 -11 2
-33 6 -50 9 -16 4 -50 9 -75 13 -25 3 -52 7 -60 9 -8 2 -40 6 -70 10 -30 3
-70 8 -87 11 -18 2 -54 6 -80 9 -27 3 -68 8 -93 11 -49 6 -645 15 -651 10z"/>
</g>
</svg>
